<mxfile host="Electron" modified="2024-07-07T22:43:54.541Z" agent="Mozilla/5.0 (Windows NT 10.0; Win64; x64) AppleWebKit/537.36 (KHTML, like Gecko) draw.io/24.6.4 Chrome/124.0.6367.207 Electron/30.0.6 Safari/537.36" etag="VHL27zrZHm8F4HQvOecZ" version="24.6.4" type="device">
  <diagram name="Page-1" id="vijY1f4PqsSi60ufPODS">
    <mxGraphModel dx="1038" dy="622" grid="1" gridSize="10" guides="1" tooltips="1" connect="1" arrows="1" fold="1" page="1" pageScale="1" pageWidth="827" pageHeight="1169" math="0" shadow="0">
      <root>
        <mxCell id="0" />
        <mxCell id="1" parent="0" />
        <mxCell id="ghUw06aheADdykcZdkmv-12" style="edgeStyle=orthogonalEdgeStyle;rounded=0;orthogonalLoop=1;jettySize=auto;html=1;" edge="1" parent="1" source="ghUw06aheADdykcZdkmv-5" target="ghUw06aheADdykcZdkmv-10">
          <mxGeometry relative="1" as="geometry" />
        </mxCell>
        <mxCell id="ghUw06aheADdykcZdkmv-5" value="Program Start" style="rounded=1;whiteSpace=wrap;html=1;" vertex="1" parent="1">
          <mxGeometry x="354" y="50" width="120" height="60" as="geometry" />
        </mxCell>
        <mxCell id="ghUw06aheADdykcZdkmv-16" style="edgeStyle=orthogonalEdgeStyle;rounded=0;orthogonalLoop=1;jettySize=auto;html=1;entryX=0.5;entryY=0;entryDx=0;entryDy=0;" edge="1" parent="1" source="ghUw06aheADdykcZdkmv-10" target="ghUw06aheADdykcZdkmv-13">
          <mxGeometry relative="1" as="geometry" />
        </mxCell>
        <mxCell id="ghUw06aheADdykcZdkmv-10" value="Monitoring PORTS through wich downloads can occur" style="rounded=0;whiteSpace=wrap;html=1;" vertex="1" parent="1">
          <mxGeometry x="354" y="240" width="120" height="60" as="geometry" />
        </mxCell>
        <mxCell id="ghUw06aheADdykcZdkmv-14" style="edgeStyle=orthogonalEdgeStyle;rounded=0;orthogonalLoop=1;jettySize=auto;html=1;entryX=1;entryY=0.5;entryDx=0;entryDy=0;" edge="1" parent="1" source="ghUw06aheADdykcZdkmv-13" target="ghUw06aheADdykcZdkmv-10">
          <mxGeometry relative="1" as="geometry">
            <mxPoint x="770" y="430" as="targetPoint" />
            <Array as="points">
              <mxPoint x="680" y="440" />
              <mxPoint x="680" y="270" />
            </Array>
          </mxGeometry>
        </mxCell>
        <mxCell id="ghUw06aheADdykcZdkmv-18" style="edgeStyle=orthogonalEdgeStyle;rounded=0;orthogonalLoop=1;jettySize=auto;html=1;exitX=0.5;exitY=1;exitDx=0;exitDy=0;entryX=0.5;entryY=0;entryDx=0;entryDy=0;" edge="1" parent="1" source="ghUw06aheADdykcZdkmv-13" target="ghUw06aheADdykcZdkmv-17">
          <mxGeometry relative="1" as="geometry" />
        </mxCell>
        <mxCell id="ghUw06aheADdykcZdkmv-13" value="Is Download occurring?" style="rhombus;whiteSpace=wrap;html=1;" vertex="1" parent="1">
          <mxGeometry x="344" y="370" width="140" height="140" as="geometry" />
        </mxCell>
        <mxCell id="ghUw06aheADdykcZdkmv-15" value="&lt;font style=&quot;font-size: 34px;&quot;&gt;NO&lt;/font&gt;" style="text;html=1;align=center;verticalAlign=middle;whiteSpace=wrap;rounded=0;" vertex="1" parent="1">
          <mxGeometry x="520" y="370" width="140" height="70" as="geometry" />
        </mxCell>
        <mxCell id="ghUw06aheADdykcZdkmv-21" style="edgeStyle=orthogonalEdgeStyle;rounded=0;orthogonalLoop=1;jettySize=auto;html=1;entryX=0.5;entryY=0;entryDx=0;entryDy=0;" edge="1" parent="1" source="ghUw06aheADdykcZdkmv-17" target="ghUw06aheADdykcZdkmv-20">
          <mxGeometry relative="1" as="geometry" />
        </mxCell>
        <mxCell id="ghUw06aheADdykcZdkmv-17" value="Catch download" style="rounded=0;whiteSpace=wrap;html=1;" vertex="1" parent="1">
          <mxGeometry x="354" y="610" width="120" height="60" as="geometry" />
        </mxCell>
        <mxCell id="ghUw06aheADdykcZdkmv-19" value="&lt;font style=&quot;font-size: 34px;&quot;&gt;YES&lt;/font&gt;" style="text;html=1;align=center;verticalAlign=middle;whiteSpace=wrap;rounded=0;" vertex="1" parent="1">
          <mxGeometry x="400" y="520" width="140" height="70" as="geometry" />
        </mxCell>
        <mxCell id="ghUw06aheADdykcZdkmv-23" style="edgeStyle=orthogonalEdgeStyle;rounded=0;orthogonalLoop=1;jettySize=auto;html=1;entryX=0.5;entryY=0;entryDx=0;entryDy=0;" edge="1" parent="1" source="ghUw06aheADdykcZdkmv-20" target="ghUw06aheADdykcZdkmv-22">
          <mxGeometry relative="1" as="geometry" />
        </mxCell>
        <mxCell id="ghUw06aheADdykcZdkmv-20" value="Place into Sandbox" style="rounded=0;whiteSpace=wrap;html=1;" vertex="1" parent="1">
          <mxGeometry x="354" y="750" width="120" height="60" as="geometry" />
        </mxCell>
        <mxCell id="ghUw06aheADdykcZdkmv-29" style="edgeStyle=orthogonalEdgeStyle;rounded=0;orthogonalLoop=1;jettySize=auto;html=1;entryX=0.5;entryY=0;entryDx=0;entryDy=0;" edge="1" parent="1" source="ghUw06aheADdykcZdkmv-22" target="ghUw06aheADdykcZdkmv-25">
          <mxGeometry relative="1" as="geometry" />
        </mxCell>
        <mxCell id="ghUw06aheADdykcZdkmv-22" value="Analyze file" style="rounded=0;whiteSpace=wrap;html=1;" vertex="1" parent="1">
          <mxGeometry x="354" y="870" width="120" height="60" as="geometry" />
        </mxCell>
        <mxCell id="ghUw06aheADdykcZdkmv-26" style="edgeStyle=orthogonalEdgeStyle;rounded=0;orthogonalLoop=1;jettySize=auto;html=1;entryX=0;entryY=0.5;entryDx=0;entryDy=0;" edge="1" parent="1" source="ghUw06aheADdykcZdkmv-25" target="ghUw06aheADdykcZdkmv-10">
          <mxGeometry relative="1" as="geometry">
            <mxPoint x="220" y="350" as="targetPoint" />
            <Array as="points">
              <mxPoint x="120" y="1050" />
              <mxPoint x="120" y="270" />
            </Array>
          </mxGeometry>
        </mxCell>
        <mxCell id="ghUw06aheADdykcZdkmv-30" style="edgeStyle=orthogonalEdgeStyle;rounded=0;orthogonalLoop=1;jettySize=auto;html=1;entryX=0.5;entryY=0;entryDx=0;entryDy=0;" edge="1" parent="1" source="ghUw06aheADdykcZdkmv-25" target="ghUw06aheADdykcZdkmv-31">
          <mxGeometry relative="1" as="geometry">
            <mxPoint x="414" y="1240" as="targetPoint" />
          </mxGeometry>
        </mxCell>
        <mxCell id="ghUw06aheADdykcZdkmv-25" value="Does the file pass the analysis?" style="rhombus;whiteSpace=wrap;html=1;" vertex="1" parent="1">
          <mxGeometry x="344" y="980" width="140" height="140" as="geometry" />
        </mxCell>
        <mxCell id="ghUw06aheADdykcZdkmv-27" value="&lt;font style=&quot;font-size: 34px;&quot;&gt;YES&lt;/font&gt;" style="text;html=1;align=center;verticalAlign=middle;whiteSpace=wrap;rounded=0;" vertex="1" parent="1">
          <mxGeometry x="190" y="990" width="140" height="70" as="geometry" />
        </mxCell>
        <mxCell id="ghUw06aheADdykcZdkmv-34" style="edgeStyle=orthogonalEdgeStyle;rounded=0;orthogonalLoop=1;jettySize=auto;html=1;entryX=0.5;entryY=0;entryDx=0;entryDy=0;" edge="1" parent="1" source="ghUw06aheADdykcZdkmv-31" target="ghUw06aheADdykcZdkmv-33">
          <mxGeometry relative="1" as="geometry" />
        </mxCell>
        <mxCell id="ghUw06aheADdykcZdkmv-31" value="File gets disassembled" style="rounded=0;whiteSpace=wrap;html=1;" vertex="1" parent="1">
          <mxGeometry x="354" y="1260" width="120" height="60" as="geometry" />
        </mxCell>
        <mxCell id="ghUw06aheADdykcZdkmv-36" style="edgeStyle=orthogonalEdgeStyle;rounded=0;orthogonalLoop=1;jettySize=auto;html=1;entryX=0.5;entryY=0;entryDx=0;entryDy=0;" edge="1" parent="1" source="ghUw06aheADdykcZdkmv-33" target="ghUw06aheADdykcZdkmv-35">
          <mxGeometry relative="1" as="geometry" />
        </mxCell>
        <mxCell id="ghUw06aheADdykcZdkmv-33" value="Generate Graph/Description out of the assembly code" style="rounded=0;whiteSpace=wrap;html=1;" vertex="1" parent="1">
          <mxGeometry x="354" y="1370" width="120" height="60" as="geometry" />
        </mxCell>
        <mxCell id="ghUw06aheADdykcZdkmv-38" value="" style="edgeStyle=orthogonalEdgeStyle;rounded=0;orthogonalLoop=1;jettySize=auto;html=1;" edge="1" parent="1" source="ghUw06aheADdykcZdkmv-35" target="ghUw06aheADdykcZdkmv-37">
          <mxGeometry relative="1" as="geometry" />
        </mxCell>
        <mxCell id="ghUw06aheADdykcZdkmv-35" value="Graph/Description is fed into an LLM that is trained on information about malware" style="rounded=0;whiteSpace=wrap;html=1;" vertex="1" parent="1">
          <mxGeometry x="351" y="1470" width="126" height="80" as="geometry" />
        </mxCell>
        <mxCell id="ghUw06aheADdykcZdkmv-41" value="" style="edgeStyle=orthogonalEdgeStyle;rounded=0;orthogonalLoop=1;jettySize=auto;html=1;" edge="1" parent="1" source="ghUw06aheADdykcZdkmv-37" target="ghUw06aheADdykcZdkmv-39">
          <mxGeometry relative="1" as="geometry" />
        </mxCell>
        <mxCell id="ghUw06aheADdykcZdkmv-37" value="Generate abstract report for end user" style="rounded=0;whiteSpace=wrap;html=1;" vertex="1" parent="1">
          <mxGeometry x="354" y="1610" width="120" height="60" as="geometry" />
        </mxCell>
        <mxCell id="ghUw06aheADdykcZdkmv-42" style="edgeStyle=orthogonalEdgeStyle;rounded=0;orthogonalLoop=1;jettySize=auto;html=1;exitX=1;exitY=0.5;exitDx=0;exitDy=0;entryX=1;entryY=0.25;entryDx=0;entryDy=0;" edge="1" parent="1" source="ghUw06aheADdykcZdkmv-39" target="ghUw06aheADdykcZdkmv-10">
          <mxGeometry relative="1" as="geometry">
            <Array as="points">
              <mxPoint x="750" y="1754" />
              <mxPoint x="750" y="255" />
            </Array>
          </mxGeometry>
        </mxCell>
        <mxCell id="ghUw06aheADdykcZdkmv-39" value="Save report/information into database/glossary" style="rounded=0;whiteSpace=wrap;html=1;" vertex="1" parent="1">
          <mxGeometry x="354" y="1724" width="120" height="60" as="geometry" />
        </mxCell>
        <mxCell id="ghUw06aheADdykcZdkmv-43" value="" style="shape=flexArrow;endArrow=classic;html=1;rounded=0;entryX=-0.005;entryY=0.407;entryDx=0;entryDy=0;entryPerimeter=0;exitX=1;exitY=0;exitDx=0;exitDy=0;" edge="1" parent="1" source="ghUw06aheADdykcZdkmv-10" target="ghUw06aheADdykcZdkmv-46">
          <mxGeometry width="50" height="50" relative="1" as="geometry">
            <mxPoint x="451" y="156.35" as="sourcePoint" />
            <mxPoint x="860" y="153.65999999999994" as="targetPoint" />
          </mxGeometry>
        </mxCell>
        <mxCell id="ghUw06aheADdykcZdkmv-45" value="" style="shape=flexArrow;endArrow=classic;html=1;rounded=0;entryX=-0.003;entryY=0.458;entryDx=0;entryDy=0;entryPerimeter=0;exitX=1;exitY=0;exitDx=0;exitDy=0;" edge="1" parent="1" target="ghUw06aheADdykcZdkmv-47">
          <mxGeometry width="50" height="50" relative="1" as="geometry">
            <mxPoint x="477" y="646.3399999999999" as="sourcePoint" />
            <mxPoint x="909.1199999999999" y="635.3599999999997" as="targetPoint" />
          </mxGeometry>
        </mxCell>
        <mxCell id="ghUw06aheADdykcZdkmv-46" value="&lt;blockquote style=&quot;border: none; color: rgb(102, 102, 102); font-size: 17px; text-align: left; margin: 0px 0px 0px 40px; padding: 0px;&quot;&gt;&lt;div&gt;Ports:&lt;/div&gt;&lt;div&gt;&lt;span style=&quot;background-color: initial;&quot;&gt;HTTP&amp;nbsp; - 80&lt;/span&gt;&lt;/div&gt;&lt;div&gt;HTTPS - 443&lt;/div&gt;&lt;div&gt;FTP&amp;nbsp; &amp;nbsp;- 21(control channel)20(data channel)&lt;/div&gt;&lt;div&gt;SCP&amp;nbsp; &amp;nbsp;- 22&lt;/div&gt;&lt;div&gt;FTPS&amp;nbsp; - 990(control channel) 989(data channel)&lt;/div&gt;&lt;div&gt;TFTP&amp;nbsp; - 69&lt;/div&gt;&lt;/blockquote&gt;&lt;div style=&quot;color: rgb(102, 102, 102); font-size: 17px; text-align: left;&quot;&gt;&lt;br&gt;&lt;/div&gt;&lt;blockquote style=&quot;border: none; color: rgb(102, 102, 102); font-size: 17px; text-align: left; margin: 0px 0px 0px 40px; padding: 0px;&quot;&gt;https://github.com/Dimi-95/MalwareAnalysisTool/blob/main/notes/ports.txt&lt;/blockquote&gt;" style="whiteSpace=wrap;html=1;shape=mxgraph.basic.document" vertex="1" parent="1">
          <mxGeometry x="890" y="20" width="460" height="400" as="geometry" />
        </mxCell>
        <mxCell id="ghUw06aheADdykcZdkmv-47" value="&lt;span style=&quot;color: rgb(102, 102, 102); font-size: 17px; text-align: left;&quot;&gt;sFile Type is determined by:&lt;/span&gt;&lt;br style=&quot;color: rgb(102, 102, 102); font-size: 17px; text-align: left;&quot;&gt;&lt;span style=&quot;color: rgb(102, 102, 102); font-size: 17px; text-align: left;&quot;&gt;- HTTP Headers; when the browser requests a file from a server, the server responds with the file and includes metadata&lt;/span&gt;&lt;div style=&quot;color: rgb(102, 102, 102); font-size: 17px; text-align: left;&quot;&gt;in the HTTP Header.&amp;nbsp;&lt;/div&gt;&lt;div style=&quot;color: rgb(102, 102, 102); font-size: 17px; text-align: left;&quot;&gt;&lt;br&gt;&lt;/div&gt;&lt;div style=&quot;color: rgb(102, 102, 102); font-size: 17px; text-align: left;&quot;&gt;Example -&amp;gt; &#39;image/jpg&#39;&lt;/div&gt;&lt;div style=&quot;color: rgb(102, 102, 102); font-size: 17px; text-align: left;&quot;&gt;&lt;br&gt;&lt;/div&gt;&lt;div style=&quot;color: rgb(102, 102, 102); font-size: 17px; text-align: left;&quot;&gt;File extension; .jpeg, .png, etc.&lt;/div&gt;&lt;div style=&quot;color: rgb(102, 102, 102); font-size: 17px; text-align: left;&quot;&gt;&lt;br&gt;&lt;/div&gt;&lt;div style=&quot;color: rgb(102, 102, 102); font-size: 17px; text-align: left;&quot;&gt;File signature(magic number); Specific sequence of bytes that the beginning of a file that indicates its format:&lt;/div&gt;&lt;div style=&quot;color: rgb(102, 102, 102); font-size: 17px; text-align: left;&quot;&gt;JPEG -&amp;gt; FF 08 FF&lt;/div&gt;&lt;div style=&quot;color: rgb(102, 102, 102); font-size: 17px; text-align: left;&quot;&gt;PNG -&amp;gt; 89 50 4E 47 0D 0A1A 0A&lt;/div&gt;&lt;div style=&quot;color: rgb(102, 102, 102); font-size: 17px; text-align: left;&quot;&gt;GIF -&amp;gt; 47 49 46 38&lt;/div&gt;" style="whiteSpace=wrap;html=1;shape=mxgraph.basic.document" vertex="1" parent="1">
          <mxGeometry x="890" y="470" width="500" height="380" as="geometry" />
        </mxCell>
      </root>
    </mxGraphModel>
  </diagram>
</mxfile>
